<svg xmlns="http://www.w3.org/2000/svg" viewBox="0 0 741 390">
  <rect width="741" height="390" fill="#b22234"/>
  <g fill="#fff">
    <rect y="30" width="741" height="30"/>
    <rect y="90" width="741" height="30"/>
    <rect y="150" width="741" height="30"/>
    <rect y="210" width="741" height="30"/>
    <rect y="270" width="741" height="30"/>
    <rect y="330" width="741" height="30"/>
  </g>
  <rect width="296" height="210" fill="#3c3b6e"/>
  <g fill="#fff">
    <circle cx="24" cy="20" r="6"/>
    <circle cx="58" cy="20" r="6"/>
    <circle cx="92" cy="20" r="6"/>
    <circle cx="126" cy="20" r="6"/>
    <circle cx="160" cy="20" r="6"/>
    <circle cx="194" cy="20" r="6"/>
    <circle cx="228" cy="20" r="6"/>
    <circle cx="262" cy="20" r="6"/>
    <circle cx="41" cy="45" r="6"/>
    <circle cx="75" cy="45" r="6"/>
    <circle cx="109" cy="45" r="6"/>
    <circle cx="143" cy="45" r="6"/>
    <circle cx="177" cy="45" r="6"/>
    <circle cx="211" cy="45" r="6"/>
    <circle cx="245" cy="45" r="6"/>
    <circle cx="24" cy="70" r="6"/>
    <circle cx="58" cy="70" r="6"/>
    <circle cx="92" cy="70" r="6"/>
    <circle cx="126" cy="70" r="6"/>
    <circle cx="160" cy="70" r="6"/>
    <circle cx="194" cy="70" r="6"/>
    <circle cx="228" cy="70" r="6"/>
    <circle cx="262" cy="70" r="6"/>
    <circle cx="41" cy="95" r="6"/>
    <circle cx="75" cy="95" r="6"/>
    <circle cx="109" cy="95" r="6"/>
    <circle cx="143" cy="95" r="6"/>
    <circle cx="177" cy="95" r="6"/>
    <circle cx="211" cy="95" r="6"/>
    <circle cx="245" cy="95" r="6"/>
    <circle cx="24" cy="120" r="6"/>
    <circle cx="58" cy="120" r="6"/>
    <circle cx="92" cy="120" r="6"/>
    <circle cx="126" cy="120" r="6"/>
    <circle cx="160" cy="120" r="6"/>
    <circle cx="194" cy="120" r="6"/>
    <circle cx="228" cy="120" r="6"/>
    <circle cx="262" cy="120" r="6"/>
    <circle cx="41" cy="145" r="6"/>
    <circle cx="75" cy="145" r="6"/>
    <circle cx="109" cy="145" r="6"/>
    <circle cx="143" cy="145" r="6"/>
    <circle cx="177" cy="145" r="6"/>
    <circle cx="211" cy="145" r="6"/>
    <circle cx="245" cy="145" r="6"/>
    <circle cx="24" cy="170" r="6"/>
    <circle cx="58" cy="170" r="6"/>
    <circle cx="92" cy="170" r="6"/>
    <circle cx="126" cy="170" r="6"/>
    <circle cx="160" cy="170" r="6"/>
    <circle cx="194" cy="170" r="6"/>
    <circle cx="228" cy="170" r="6"/>
    <circle cx="262" cy="170" r="6"/>
    <circle cx="41" cy="195" r="6"/>
    <circle cx="75" cy="195" r="6"/>
    <circle cx="109" cy="195" r="6"/>
    <circle cx="143" cy="195" r="6"/>
    <circle cx="177" cy="195" r="6"/>
    <circle cx="211" cy="195" r="6"/>
    <circle cx="245" cy="195" r="6"/>
  </g>
</svg>
